<?xml version="1.0" encoding="UTF-8" standalone="no"?>
<svg width="473px" height="96px" viewBox="0 0 473 96" version="1.1" xmlns="http://www.w3.org/2000/svg" xmlns:xlink="http://www.w3.org/1999/xlink">
    <!-- Generator: Sketch 39.1 (31720) - http://www.bohemiancoding.com/sketch -->
    <title>Group</title>
    <desc>Created with Sketch.</desc>
    <defs></defs>
    <g id="Page-1" stroke="none" stroke-width="1" fill="none" fill-rule="evenodd">
        <g id="PROMPT-Logo-3" transform="translate(-37.000000, -58.000000)">
            <g id="Group" transform="translate(37.000000, 58.000000)">
                <path d="M50.0902729,17.8108481 C55.2549738,22.126557 57.8372855,28.776894 57.8372855,37.7620585 C57.8372855,46.747223 55.2019126,53.3268117 49.9310877,57.501022 C44.6602629,61.6752323 36.5772735,63.7623061 25.6818772,63.7623061 L12.5225682,63.7623061 L12.5225682,85.5176153 L0,85.5176153 L0,11.3373171 L25.4696303,11.3373171 C36.7187733,11.3373171 44.9255721,13.4951392 50.0902729,17.8108481 Z M41.228964,48.4274662 C43.7405651,45.7743664 44.9963469,41.8832118 44.9963469,36.7538856 C44.9963469,31.6245594 43.4045109,27.9987108 40.2207912,25.876231 C37.0370715,23.7537512 32.0493187,22.6925272 25.2573834,22.6925272 L12.5225682,22.6925272 L12.5225682,52.4070959 L27.0614822,52.4070959 C33.9949162,52.4070959 38.7173629,51.0805659 41.228964,48.4274662 Z" id="Path-Copy-32" fill="#000000"></path>
                <path d="M396.090273,17.473531 C401.254974,21.78924 403.837285,28.4395769 403.837285,37.4247414 C403.837285,46.4099059 401.201913,52.9894946 395.931088,57.1637049 C390.660263,61.3379152 382.577274,63.424989 371.681877,63.424989 L358.522568,63.424989 L358.522568,85.1802982 L346,85.1802982 L346,11 L371.46963,11 C382.718773,11 390.925572,13.1578221 396.090273,17.473531 Z M387.228964,48.0901491 C389.740565,45.4370494 390.996347,41.5458948 390.996347,36.4165686 C390.996347,31.2872424 389.404511,27.6613938 386.220791,25.538914 C383.037071,23.4164342 378.049319,22.3552102 371.257383,22.3552102 L358.522568,22.3552102 L358.522568,52.0697789 L373.061482,52.0697789 C379.994916,52.0697789 384.717363,50.7432489 387.228964,48.0901491 Z" id="Path-Copy-33" fill="#000000"></path>
                <path d="M131.21689,35.4273424 C131.21689,47.6669759 125.875396,55.3785369 115.192248,58.5622566 L134.612841,85.5176153 L118.694322,85.5176153 L100.971704,60.5786023 L84.5225682,60.5786023 L84.5225682,85.5176153 L72,85.5176153 L72,11.3373171 L99.5920995,11.3373171 C110.911992,11.3373171 119.012668,13.2475202 123.894372,17.0679839 C128.776075,20.8884475 131.21689,27.0081725 131.21689,35.4273424 Z M114.555507,45.9335649 C117.102483,43.7403358 118.375952,40.2206095 118.375952,35.3742807 C118.375952,30.5279518 117.067109,27.2027833 114.449384,25.3986755 C111.831659,23.5945676 107.162273,22.6925272 100.441087,22.6925272 L84.5225682,22.6925272 L84.5225682,49.2233921 L100.122717,49.2233921 C107.197649,49.2233921 112.008532,48.126794 114.555507,45.9335649 Z" id="Path-Copy-31" fill="#000000"></path>
                <polygon id="Path-Copy-30" fill="#000000" points="259.522568 85.5176153 247 85.5176153 247 11.3373171 266.526717 11.3373171 288.918767 57.9255158 311.310816 11.3373171 330.73141 11.3373171 330.73141 85.5176153 318.208841 85.5176153 318.208841 27.5742064 292.314717 79.0440843 285.310569 79.0440843 259.522568 27.5742064"></polygon>
                <polygon id="Path-Copy-28" fill="#000000" points="450.020742 22.7986507 450.020742 85.5176153 437.498173 85.5176153 437.498173 22.7986507 415 22.7986507 415 11.3373171 472.518915 11.3373171 472.518915 22.7986507"></polygon>
                <path d="M151.126691,50.9478261 C151.126691,34.5043478 162.23603,20.4869565 177.677831,15.9031444 L177.677831,20.4869565 L198,10.2434783 L177.67904,0 L177.67904,7.27826087 C157.90115,12.4 143,29.9217391 143,50.9478261 C143,53.9118401 143.27214,56.8782609 143.81279,59.573913 L144.62558,55.2608696 L152.75348,62 C151.66976,58.4956522 151.126691,54.7205357 151.126691,50.9478261 Z" id="Shape" fill="#000000"></path>
                <path d="M219.348216,58.0912965 L217.990479,81 L237,68.4559751 L230.756837,64.6342053 C232.113362,60.5470179 232.655244,56.1834554 232.655244,51.5435176 C232.655244,31.909921 219.893735,15.2726212 202.51471,9 L205.773277,11.4545039 L196,15.5453439 C212.289199,19.3634611 224.510038,34.0904848 224.510038,51.5435176 C224.510038,54.5446844 223.966944,57.5434161 223.423849,60.2706427 L219.348216,58.0912965 L219.348216,58.0912965 Z" id="Shape" fill="#337CD2"></path>
                <path d="M215.104641,75.985032 C208.337401,83.2903202 198.870271,87.8891857 188.046552,87.8891857 C178.306413,87.8891857 169.375637,83.8301555 162.881405,77.6093687 L166.9403,75.443989 L148,63 L149.351757,85.723806 L155.575395,81.9352973 C163.693184,90.5919854 175.32989,96 188.046552,96 C199.142072,96 209.15522,91.9445929 217,85.1803477 L213.752884,86.2624337 L215.104641,75.985032 L215.104641,75.985032 Z" id="Shape" fill="#D15906"></path>
            </g>
        </g>
    </g>
</svg>