<?xml version="1.0" encoding="UTF-8" standalone="no"?>
<svg width="180px" height="37px" viewBox="0 0 180 37" version="1.1" xmlns="http://www.w3.org/2000/svg" xmlns:xlink="http://www.w3.org/1999/xlink">
    <!-- Generator: Sketch 3.8.3 (29802) - http://www.bohemiancoding.com/sketch -->
    <title>Group</title>
    <desc>Created with Sketch.</desc>
    <defs></defs>
    <g id="Page-1" stroke="none" stroke-width="1" fill="none" fill-rule="evenodd">
        <g id="Homepage" transform="translate(-511.000000, -1902.000000)" fill="#FFFFFF">
            <g id="Group" transform="translate(511.000000, 1902.000000)">
                <path d="M19.0618375,7.52095495 C21.0272627,9.1671532 22.0099606,11.7038797 22.0099606,15.1312105 C22.0099606,18.5585412 21.0070703,21.0682813 19.0012596,22.6605058 C16.9954489,24.2527303 13.9194698,25.0488307 9.77323023,25.0488307 L4.76545937,25.0488307 L4.76545937,33.3472476 L0,33.3472476 L0,5.05166991 L9.69245973,5.05166991 C13.9733175,5.05166991 17.0964122,5.87475669 19.0618375,7.52095495 Z M15.6896692,19.1994588 C16.6454582,18.1874516 17.1233455,16.7031968 17.1233455,14.7466497 C17.1233455,12.7901026 16.5175729,11.4070469 15.3060093,10.5974412 C14.0944458,9.78783552 12.1963581,9.38303874 9.61168923,9.38303874 L4.76545937,9.38303874 L4.76545937,20.7174618 L10.2982385,20.7174618 C12.9367546,20.7174618 14.7338802,20.2114659 15.6896692,19.1994588 Z" id="Path-Copy-32"></path>
                <path d="M150.732028,7.39228761 C152.697453,9.03848586 153.680151,11.5752123 153.680151,15.0025431 C153.680151,18.4298739 152.677261,20.9396139 150.67145,22.5318385 C148.665639,24.124063 145.58966,24.9201633 141.443421,24.9201633 L136.43565,24.9201633 L136.43565,33.2185803 L131.67019,33.2185803 L131.67019,4.92300258 L141.36265,4.92300258 C145.643508,4.92300258 148.766602,5.74608936 150.732028,7.39228761 Z M147.359859,19.0707914 C148.315648,18.0587843 148.793536,16.5745294 148.793536,14.6179823 C148.793536,12.6614352 148.187763,11.2783796 146.9762,10.4687739 C145.764636,9.65916818 143.866548,9.25437141 141.28188,9.25437141 L136.43565,9.25437141 L136.43565,20.5887945 L141.968429,20.5887945 C144.606945,20.5887945 146.40407,20.0827985 147.359859,19.0707914 Z" id="Path-Copy-33"></path>
                <path d="M49.934546,14.2406486 C49.934546,18.9093748 47.9018422,21.8508981 43.8363735,23.0653066 L51.226874,33.3472476 L45.1690867,33.3472476 L38.4247501,23.8344282 L32.1650365,23.8344282 L32.1650365,33.3472476 L27.3995772,33.3472476 L27.3995772,5.05166991 L37.8997419,5.05166991 C42.2075233,5.05166991 45.2902331,5.78030411 47.1479639,7.23759437 C49.0056946,8.69488463 49.934546,11.0292127 49.934546,14.2406486 Z M43.594062,18.2481768 C44.5633128,17.4115843 45.0479309,16.0690083 45.0479309,14.2204086 C45.0479309,12.3718089 44.5498512,11.1034457 43.5536767,10.4152808 C42.5575023,9.727116 40.7805691,9.38303874 38.2228239,9.38303874 L32.1650365,9.38303874 L32.1650365,19.5030594 L38.1016681,19.5030594 C40.7940315,19.5030594 42.6248112,19.0847694 43.594062,18.2481768 Z" id="Path-Copy-31"></path>
                <polygon id="Path-Copy-30" points="98.761231 33.3472476 93.9957717 33.3472476 93.9957717 5.05166991 101.426657 5.05166991 109.947945 22.8224261 118.469232 5.05166991 125.859733 5.05166991 125.859733 33.3472476 121.094274 33.3472476 121.094274 11.2451225 111.240273 30.8779626 108.574847 30.8779626 98.761231 11.2451225"></polygon>
                <polygon id="Path-Copy-28" points="171.255251 9.42351883 171.255251 33.3472476 166.489791 33.3472476 166.489791 9.42351883 157.928118 9.42351883 157.928118 5.05166991 179.816923 5.05166991 179.816923 9.42351883"></polygon>
                <path d="M57.5112142,19.4337069 C57.5112142,13.1614523 61.7388698,7.81461228 67.6152422,6.06614787 L67.6152422,7.81461228 L75.3488372,3.90730614 L67.6157024,0 L67.6157024,2.77624384 C60.0892326,4.72989691 54.4186047,11.4134469 54.4186047,19.4337069 C54.4186047,20.5643101 54.5221673,21.6958315 54.7279116,22.7240699 L55.0372186,21.0788884 L58.1302884,23.6494845 C57.7178791,22.3127745 57.5112142,20.8727817 57.5112142,19.4337069 Z" id="Shape"></path>
                <path d="M83.4728939,22.1585358 L82.9562078,30.8969072 L90.1902748,26.112073 L87.8144413,24.6542845 C88.3306661,23.0952543 88.5368792,21.4308026 88.5368792,19.6609294 C88.5368792,12.1718255 83.680491,5.82563902 77.0669086,3.43298969 L78.3069553,4.36924377 L74.5877378,5.92966725 C80.7865874,7.38606249 85.4372238,13.003587 85.4372238,19.6609294 C85.4372238,20.8057043 85.2305494,21.9495505 85.0238749,22.9898328 L83.4728939,22.1585358 L83.4728939,22.1585358 Z" id="Shape"></path>
                <path d="M81.858003,28.9839813 C79.2827318,31.7705345 75.6800185,33.5247409 71.5610557,33.5247409 C67.8544489,33.5247409 64.4558449,31.9764511 61.9844672,29.6035736 L63.5290783,28.7776041 L56.3213531,24.0309278 L56.8357637,32.6987714 L59.2041673,31.2536701 C62.2933894,34.5557058 66.7217341,36.6185567 71.5610557,36.6185567 C75.7834523,36.6185567 79.5939526,35.0716488 82.5792812,32.4914728 L81.3435923,32.9042273 L81.858003,28.9839813 L81.858003,28.9839813 Z" id="Shape"></path>
            </g>
        </g>
    </g>
</svg>